<svg width="32" height="32" viewBox="0 0 40 33" fill="none" xmlns="http://www.w3.org/2000/svg">
<path d="M18.4248 17.1007L21.0163 17.1569V15.4693L18.4811 15.4131L18.4248 17.1007Z" fill="#131E2C"/>
<path fill-rule="evenodd" clip-rule="evenodd" d="M20.4528 2.47511C21.8613 0.843785 23.4387 0 26.312 0C30.5937 0 34.0866 1.29381 36.3965 3.54391C38.4246 5.6815 39.5514 8.60664 39.4951 11.7568C39.4387 14.4569 38.7627 17.0445 36.5655 19.0134C34.481 20.8697 31.7204 21.9385 29.0162 21.9385H28.8472L21.6923 21.826L21.7486 20.3072L28.9035 20.4197C31.2697 20.4759 33.5232 19.5759 35.2134 17.9446C36.9035 16.3132 37.8613 14.1194 37.9176 11.7568C37.9739 9.84419 37.4106 8.04411 36.2838 6.46904L36.2275 6.52529C36.7908 7.8191 37.0725 9.16916 37.0725 10.5755C37.0162 15.582 32.9035 19.5759 27.9458 19.5759H27.7768L20.9599 19.4634L18.481 19.4071L14.0866 19.3509H13.9739C11.1007 19.3509 8.79085 21.601 8.73451 24.4699C8.73451 25.6512 9.12887 26.8887 9.9176 27.845L10.0866 28.07L9.97394 27.7888C9.69225 27.1137 9.57958 26.3824 9.57958 25.6512C9.63592 22.6135 12.1148 20.1947 15.157 20.1947H15.2697L17.6359 20.2509L17.5796 21.7697L15.2134 21.7135H15.157C12.9599 21.7135 11.157 23.5136 11.1007 25.7074C11.0444 26.7762 11.3824 27.5637 12.0584 28.1263C12.6782 28.6325 13.5232 28.9138 14.7063 28.9138C15.7204 28.9701 16.6782 28.4638 17.3542 27.62C17.9739 26.8325 18.3683 25.7637 18.3683 24.6386L18.4246 20.3072L20.8472 20.3634L20.7908 24.6949C20.7345 26.7762 20.0584 28.6325 18.9317 29.9826C17.4669 31.6702 15.3261 32.514 12.5655 32.514C8.39648 32.514 5.24155 31.3889 3.04436 29.1951C1.0162 27.1137 -0.0542227 24.1323 0.00211532 20.7009C0.0584533 17.9446 1.18521 15.3569 3.15704 13.4444C5.12887 11.5318 7.66408 10.5192 10.3683 10.5192H10.5373L17.6922 10.6317L17.6359 12.1505L10.481 12.038C8.11479 11.9818 5.86127 12.8818 4.17113 14.5132C2.48098 16.1445 1.52324 18.3383 1.4669 20.7009C1.41056 22.6135 1.97395 24.4136 3.10071 25.9887L3.15704 25.9324C2.59366 24.6386 2.25564 23.2885 2.31197 21.8822C2.36831 19.4634 3.38239 17.157 5.12887 15.4694C6.87535 13.7819 9.12887 12.8818 11.4951 12.8818H11.6641L18.481 12.9943L20.9599 13.0506L25.3542 13.1068H25.4669C28.3401 13.1068 30.65 10.8567 30.7063 7.98786C30.7063 6.7503 30.312 5.569 29.5232 4.61271L29.3542 4.3877L29.4669 4.66896C29.7486 5.34399 29.8613 6.07527 29.8613 6.80656C29.8049 9.84419 27.326 12.2631 24.2838 12.2631H24.1711L21.8049 12.2068L21.8613 10.688L24.2275 10.7442C25.2979 10.8005 26.312 10.3505 27.1007 9.61918C27.8894 8.8879 28.3401 7.87535 28.3401 6.80656C28.3965 5.73776 28.0584 4.95022 27.3824 4.3877C26.7627 3.88142 25.9176 3.60016 24.7345 3.60016H24.6782C23.6641 3.60016 22.7627 4.05018 22.0866 4.89397C21.4669 5.6815 21.0725 6.7503 21.0725 7.87536L21.0162 12.2068L18.5937 12.1505L18.65 7.8191C18.7063 6.30028 18.988 4.16268 20.4528 2.47511ZM27.7768 18.0571H27.8894C32.0584 18.0571 35.4387 14.7382 35.5514 10.5755C35.6077 8.8879 35.1007 7.25658 34.0866 5.90652L33.8613 5.569L34.0303 5.96277C34.481 7.08782 34.7063 8.21287 34.7063 9.39417C34.65 11.5318 33.8049 13.5006 32.2838 14.9632C30.7627 16.4257 28.8472 17.2133 26.7627 17.2133H26.5937L21.8613 17.1008L21.9176 15.582L26.65 15.6945H26.7627C28.3965 15.6945 30.0303 15.0757 31.2134 13.8944C32.4528 12.7131 33.1289 11.138 33.1852 9.39417C33.1852 7.93161 32.7345 6.52529 31.8331 5.34399L31.6077 5.06273L31.7204 5.40024C32.1148 6.24403 32.2838 7.20033 32.2838 8.15662C32.2275 9.9567 31.4951 11.6443 30.1993 12.8818C28.9599 14.1194 27.2697 14.7944 25.5232 14.7944H25.4106L21.0162 14.7382H20.9599L18.5373 14.6819L11.7204 14.5694H11.6077C7.43873 14.5694 4.00211 17.8883 3.94578 22.051C3.88944 23.7386 4.39648 25.3699 5.41056 26.72L5.63592 27.0575L5.4669 26.6637C5.0162 25.5386 4.79085 24.4136 4.79085 23.2323C4.84718 18.9009 8.39648 15.4132 12.7345 15.4132H12.9035L17.6359 15.5257L17.5796 17.0445L12.8472 16.932H12.7345C9.24155 16.932 6.36831 19.7446 6.31197 23.2323C6.31197 24.6949 6.76267 26.1012 7.66408 27.2825L7.88944 27.5637L7.77676 27.2262C7.3824 26.3824 7.21338 25.4261 7.21338 24.4699C7.26972 22.6698 8.00211 20.9822 9.29789 19.7446C10.5373 18.5071 12.2275 17.8321 13.9739 17.8321H14.0866L18.481 17.8883L20.9599 17.9446L27.7768 18.0571Z" fill="#434A4F"/>
</svg>
